<svg width="44" height="44" viewBox="0 0 44 44" fill="none" xmlns="http://www.w3.org/2000/svg">
<rect x="0.5" y="0.5" width="43" height="43" rx="21.5" fill="#28A7E8"/>
<rect x="0.5" y="0.5" width="43" height="43" rx="21.5" stroke="#211919"/>
<path fill-rule="evenodd" clip-rule="evenodd" d="M11.6499 20.6175C18.0923 17.8106 22.3883 15.9601 24.5378 15.0661C30.675 12.5134 31.9503 12.07 32.7815 12.0553C32.9643 12.0521 33.3731 12.0974 33.6379 12.3123C33.8614 12.4937 33.9229 12.7387 33.9524 12.9107C33.9818 13.0827 34.0185 13.4746 33.9893 13.7807C33.6568 17.2752 32.2177 25.7553 31.4856 29.6691C31.1758 31.3252 30.5658 31.8805 29.9753 31.9348C28.6919 32.0529 27.7174 31.0867 26.4744 30.2719C24.5294 28.9969 23.4305 28.2032 21.5425 26.959C19.3606 25.5212 20.7751 24.7309 22.0185 23.4394C22.344 23.1014 27.9985 17.9582 28.1079 17.4917C28.1216 17.4333 28.1343 17.2158 28.0051 17.1009C27.8759 16.9861 27.6851 17.0254 27.5475 17.0566C27.3524 17.1009 24.2452 19.1546 18.2258 23.2179C17.3439 23.8235 16.545 24.1186 15.8292 24.1031C15.0402 24.0861 13.5223 23.657 12.394 23.2902C11.01 22.8403 9.91003 22.6025 10.0058 21.8384C10.0557 21.4405 10.6037 21.0335 11.6499 20.6175Z" fill="white"/>
</svg>
